<?xml version="1.0"?>
<svg xmlns="http://www.w3.org/2000/svg" xmlns:xlink="http://www.w3.org/1999/xlink" xmlns:svgjs="http://svgjs.com/svgjs" version="1.1" width="512" height="512" x="0" y="0" viewBox="0 0 512.002 512.002" style="enable-background:new 0 0 512 512" xml:space="preserve"><g><g xmlns="http://www.w3.org/2000/svg" id="XMLID_1254_"><g id="XMLID_72_"><path id="XMLID_107_" d="m491.66 178.71c-13.273-8.379-32.483-12.628-57.097-12.628-7.833 0-15.902.435-23.956 1.236 6.262-5.128 12.272-10.532 17.812-16.071 17.405-17.405 27.984-33.993 31.444-49.304 3.419-15.132-.315-29.084-10.517-39.285-10.201-10.202-24.153-13.935-39.286-10.517-15.311 3.46-31.898 14.039-49.304 31.444-8.919 8.919-17.487 19.052-25.112 29.509-.688-.304-1.417-.543-2.188-.689-5.43-1.025-10.657 2.544-11.682 7.97-2.094 11.087-4.823 21.234-7.999 29.83-5.033-1.24-10.287-1.911-15.698-1.911-5.408 0-10.661.671-15.693 1.91-7.383-20.036-12.152-48.065-12.152-72.763 0-36.504 10.149-57.44 27.844-57.44 9.365 0 16.564 5.709 21.398 16.97 2.179 5.076 8.061 7.424 13.134 5.245 5.075-2.179 7.423-8.059 5.245-13.134-8.049-18.754-22.175-29.082-39.776-29.082-14.427 0-26.933 7.225-35.216 20.343-8.379 13.272-12.628 32.483-12.628 57.097 0 7.832.428 15.899 1.23 23.951-5.127-6.26-10.527-12.269-16.065-17.806-17.405-17.405-33.993-27.984-49.303-31.444-15.135-3.42-29.085.315-39.286 10.517-10.201 10.201-13.936 24.153-10.516 39.286 3.459 15.311 14.039 31.898 31.444 49.304 5.544 5.544 11.56 10.949 17.827 16.08-8.059-.803-16.134-1.245-23.972-1.245-24.614 0-43.824 4.249-57.097 12.628-13.118 8.282-20.343 20.789-20.343 35.215s7.225 26.933 20.343 35.216c13.272 8.379 32.483 12.628 57.097 12.628 7.834 0 15.905-.43 23.96-1.232-6.262 5.128-12.276 10.528-17.815 16.067-17.404 17.405-27.983 33.993-31.443 49.304-3.419 15.133.315 29.084 10.516 39.285 7.735 7.734 17.625 11.752 28.553 11.752 3.484 0 7.075-.408 10.733-1.235 8.819-1.992 18.064-6.361 27.643-13.022-31.732 37.219-69.742 68.281-112.121 91.833 6.504-13.236 10.033-27.948 10.033-43.1 0-31.958-15.674-61.967-41.927-80.271-3.437-2.396-8.002-2.396-11.438 0-26.254 18.306-41.928 48.313-41.928 80.271 0 26.107 10.463 50.908 28.604 69.095-12.258 4.52-24.761 8.479-37.49 11.811-5.343 1.398-8.54 6.863-7.141 12.206 1.176 4.494 5.229 7.47 9.667 7.47.838 0 1.691-.105 2.54-.328 35.601-9.32 69.567-23.184 101.193-41.028 15.405 20.126 39.36 32.044 64.803 32.044 26.656 0 51.685-13.073 66.953-34.97 2.396-3.437 2.396-8.003 0-11.439-14.312-20.527-37.204-33.3-61.973-34.817 24.813-21.501 47.24-45.928 66.738-72.914-.005.621-.017 1.245-.017 1.862 0 24.614 4.249 43.824 12.628 57.097 8.283 13.118 20.789 20.343 35.216 20.343s26.933-7.225 35.215-20.343c8.379-13.272 12.628-32.482 12.628-57.097 0-7.829-.428-15.894-1.229-23.943 5.125 6.258 10.528 12.262 16.064 17.798 17.405 17.404 33.993 27.984 49.304 31.443 3.659.827 7.248 1.235 10.733 1.235 10.926 0 20.818-4.018 28.552-11.752 10.202-10.201 13.937-24.152 10.517-39.285-3.46-15.311-14.039-31.898-31.444-49.304-5.54-5.54-11.555-10.94-17.818-16.069 8.056.802 16.127 1.234 23.963 1.234 24.614 0 43.825-4.249 57.097-12.628 13.118-8.283 20.343-20.789 20.343-35.216s-7.226-26.935-20.344-35.217zm-455.305 232.71c0-23.01 10.216-44.751 27.647-59.472 17.43 14.721 27.646 36.461 27.646 59.472s-10.216 44.752-27.646 59.473c-17.43-14.721-27.647-36.462-27.647-59.473zm188.212 50.58c-11.622 13.067-28.356 20.689-46.036 20.689s-34.414-7.622-46.036-20.689c11.622-13.067 28.355-20.689 46.036-20.689s34.415 7.622 46.036 20.689zm150.331-364.273c14.483-14.484 28.167-23.501 39.569-26.078 8.551-1.933 15.336-.249 20.735 5.151 5.398 5.398 7.083 12.181 5.15 20.735-2.577 11.403-11.594 25.086-26.078 39.569-17.467 17.468-40.663 33.918-60.053 42.864-5.5-9.059-13.128-16.688-22.188-22.188 8.947-19.389 25.398-42.585 42.865-60.053zm-31.189 116.199c0 25.162-20.471 45.632-45.632 45.632-25.162 0-45.633-20.471-45.633-45.632s20.471-45.632 45.633-45.632c25.162-.001 45.632 20.47 45.632 45.632zm-182.758-137.126c5.398-5.398 12.18-7.084 20.735-5.15 11.403 2.577 25.086 11.594 39.57 26.078 17.467 17.467 33.917 40.663 42.863 60.053-9.059 5.5-16.688 13.128-22.188 22.188-19.389-8.946-42.585-25.396-60.053-42.863-25.812-25.814-33.44-47.794-20.927-60.306zm-56.8 137.126c0-17.695 20.936-27.844 57.44-27.844 24.698 0 52.727 4.769 72.763 12.152-1.239 5.031-1.91 10.284-1.91 15.692s.671 10.661 1.91 15.693c-20.036 7.383-48.065 12.152-72.763 12.152-36.504-.001-57.44-10.15-57.44-27.845zm77.535 142.276c-8.554 1.933-15.336.248-20.736-5.151-5.398-5.398-7.083-12.181-5.15-20.734 2.577-11.403 11.594-25.086 26.078-39.569 17.467-17.468 40.663-33.918 60.053-42.864 5.5 9.059 13.128 16.688 22.188 22.187-8.946 19.39-25.396 42.586-42.864 60.053-14.483 14.484-28.166 23.501-39.569 26.078zm116.391 51.649c-17.695 0-27.844-20.936-27.844-57.439 0-24.699 4.769-52.729 12.152-72.764 5.031 1.239 10.284 1.91 15.693 1.91 5.408 0 10.661-.671 15.692-1.91 7.383 20.035 12.152 48.064 12.152 72.763-.001 36.504-10.15 57.44-27.845 57.44zm142.276-77.534c1.933 8.554.248 15.336-5.151 20.734-5.398 5.398-12.178 7.087-20.735 5.151-11.403-2.577-25.086-11.595-39.569-26.078-17.468-17.467-33.918-40.664-42.864-60.053 9.059-5.5 16.688-13.128 22.188-22.187 19.39 8.946 42.586 25.396 60.053 42.864 14.484 14.483 23.502 28.165 26.078 39.569zm-5.791-88.547c-24.699 0-52.728-4.769-72.763-12.152 1.239-5.031 1.91-10.284 1.91-15.692s-.671-10.661-1.91-15.692c20.036-7.383 48.064-12.152 72.763-12.152 36.504 0 57.44 10.148 57.44 27.844s-20.936 27.844-57.44 27.844z" fill="#7d3a56" data-original="#000000" style=""/><path id="XMLID_122_" d="m328.852 70.37c-1.86 1.86-2.93 4.44-2.93 7.07s1.07 5.21 2.93 7.07 4.44 2.93 7.07 2.93 5.21-1.07 7.07-2.93 2.93-4.44 2.93-7.07-1.07-5.21-2.93-7.07-4.44-2.93-7.07-2.93-5.21 1.07-7.07 2.93z" fill="#7d3a56" data-original="#000000" style=""/></g></g></g></svg>
