<?xml version="1.0"?>
<svg xmlns="http://www.w3.org/2000/svg" xmlns:xlink="http://www.w3.org/1999/xlink" xmlns:svgjs="http://svgjs.com/svgjs" version="1.1" width="512" height="512" x="0" y="0" viewBox="0 0 511.998 511.998" style="enable-background:new 0 0 512 512" xml:space="preserve" class=""><g>
<g xmlns="http://www.w3.org/2000/svg">
	<g>
		<path d="M511.302,381.329l-0.003-0.006c-2.754-8.389-18.959-50.328-69.417-59.059c22.592-45.957-1.821-83.713-6.99-90.871    l-0.004-0.005c-1.771-2.599-4.691-4.243-7.897-4.359c-2.15-0.078-52.397-1.33-78.289,47.769    c-4.026-3.913-8.133-7.258-12.266-10.108L459.842,86.129c3.14-4.543,2.002-10.771-2.541-13.911    c-4.545-3.141-10.77-2.002-13.911,2.541L318.648,255.249c-13.485-5.225-26.391-6.242-36.755-5.692    c4.881-11.206,6.115-19.888,6.227-20.742c0.013-0.092,0.03-0.238,0.04-0.33c0.33-3.135-0.838-6.207-3.088-8.325l-0.005-0.005    c-1.765-1.754-5.693-5.399-11.518-9.389c20.88-40.875,48.745-77.295,82.928-108.356c4.087-3.714,4.39-10.038,0.675-14.125    c-3.715-4.088-10.037-4.391-14.125-0.676C307.16,120.2,277.9,158.401,255.943,201.269c-15.185-6.19-35.493-9.66-59.537-2.229    c-0.73-51.206-39.622-73.765-47.477-77.797l-0.006-0.003c-2.758-1.511-6.104-1.65-9.016-0.298    c-0.274,0.127-1.411,0.668-3.162,1.657L97.578,83.432c-3.905-3.905-10.234-3.905-14.142,0c-3.905,3.905-3.905,10.236,0,14.141    l36.998,36.999c-13.141,12.064-28.154,32.742-28.603,64.472c-1.657-0.513-3.295-0.969-4.916-1.38    C43.789,149.643,20.04,87.657,20.04,23.037c0-0.932,0.006-1.874,0.017-2.824c83.01,3.39,159.575,46.011,206.287,115.346    c3.086,4.581,9.302,5.792,13.88,2.706c4.581-3.086,5.792-9.299,2.707-13.88C190.692,46.846,103.763,0.347,10.398,0    c-0.013,0-0.025,0-0.038,0C5.026,0,0.626,4.192,0.372,9.525c-0.218,4.609-0.329,9.155-0.329,13.513    c0,62.596,20.711,122.892,58.686,172.011c-30.639,2.185-50.843,20.411-55.568,25.106l-0.005,0.004    c-2.289,2.156-3.456,5.297-3.07,8.482c0.259,2.131,6.888,51.973,59.447,69.866c-29.586,41.882-11.359,83.038-7.372,90.923    l0.003,0.006c1.344,2.843,3.97,4.924,7.118,5.541c0.635,0.124,5.561,1.036,13.047,1.036c17.376,0,48.536-4.916,71.78-35.998    c33.26,44.478,82.723,35.374,84.827,34.962c2.171-0.425,4.081-1.557,5.506-3.144c-6.838,15.906-7.494,30.046-7.509,34.597v0.008    c-0.094,3.143,1.303,6.189,3.828,8.167c1.209,0.947,21.987,16.856,51.962,16.854c11.926-0.001,25.312-2.521,39.493-9.503    c9.446,54.727,57.65,69.069,59.715,69.658c0.905,0.258,1.826,0.383,2.74,0.383c2.204,0,4.361-0.73,6.119-2.09l0.006-0.004    c7.13-5.216,42.046-33.621,34.701-84.36c4.718,0.679,9.232,0.989,13.566,0.989c45.657-0.003,69.929-34.511,71.04-36.13    c0.091-0.133,0.188-0.281,0.267-0.405C512.004,387.379,512.323,384.18,511.302,381.329z M361.055,296.843    c0.02-0.062,0.03-0.125,0.049-0.188c0.021-0.063,0.053-0.121,0.073-0.184c1.211-3.791,2.783-7.591,4.668-11.294    c15.867-31.147,44.141-36.908,55.52-37.947c6.275,10.576,17.683,36.563,2.041,67.27c-1.15,2.258-2.41,4.431-3.745,6.521    c-26.465,1.706-44.952,14.744-55.354,24.673C359.47,335.059,354.587,317.478,361.055,296.843z M270.991,271.118    c12.001-2.699,40.244-5.516,64.608,18.847c1.794,1.793,3.473,3.665,5.049,5.581c-6.555,25.689,0.136,47.305,6.363,60.269    c-11.609,1.313-29.835,0.523-47.46-12.003c-0.056-0.04-0.115-0.071-0.171-0.109c-0.042-0.031-0.078-0.07-0.121-0.1    c-3.248-2.333-6.389-5.009-9.334-7.954C265.207,310.935,268.462,282.264,270.991,271.118z M189.711,223.269    c0.063-0.031,0.129-0.05,0.191-0.082c3.54-1.824,7.335-3.399,11.282-4.682c32.773-10.647,56.653,4.678,66.12,12.53    c-2.819,11.113-12.948,38.118-46.157,48.907c-2.406,0.781-4.83,1.426-7.249,1.96c-19.901-17.499-42.184-21.36-56.564-21.703    c4.121-10.937,13.114-26.853,32.214-36.834C189.605,223.335,189.655,223.3,189.711,223.269z M20.919,231.039    c9.465-7.851,33.351-23.181,66.123-12.533c2.415,0.785,4.763,1.691,7.039,2.685c5.82,25.85,21.568,42.064,32.999,50.789    c-9.761,6.427-26.394,14.02-47.716,10.868c-0.068-0.01-0.134-0.011-0.202-0.02c-0.052-0.009-0.101-0.027-0.154-0.035    c-3.954-0.604-7.967-1.563-11.928-2.851C33.838,269.143,23.726,242.119,20.919,231.039z M135.37,336.253    c-0.038,0.076-0.065,0.155-0.101,0.232c-0.029,0.055-0.067,0.104-0.095,0.16c-1.796,3.575-3.95,7.097-6.4,10.47    c-20.547,28.281-49.379,29.541-60.776,28.791c-4.542-11.428-11.742-38.881,8.515-66.762c1.511-2.08,3.122-4.059,4.797-5.942    c2.757,0.255,5.454,0.391,8.075,0.391c22.439,0,39.804-8.76,50.394-16.076C142.874,298.788,144.955,316.952,135.37,336.253z     M137.926,255.099c-9.128-7.298-21.486-20.77-25.077-42.019c-0.011-0.066-0.03-0.128-0.043-0.193    c-0.009-0.065-0.007-0.129-0.018-0.194c-0.643-3.928-0.968-8.026-0.968-12.183c0-31.096,17.864-48.74,28.616-56.548    c0.483-0.285,0.948-0.61,1.387-0.983c0.802-0.553,1.559-1.051,2.244-1.483c10.392,6.576,32.353,24.553,32.353,59.015    c0,2.532-0.136,5.037-0.375,7.5C153.255,221.53,142.695,241.529,137.926,255.099z M220.227,375.884    c-11.387,0.71-40.334-0.621-60.783-28.768c-1.5-2.066-2.874-4.192-4.138-6.346c10.509-24.345,7.294-46.746,3.175-60.534    c11.62,0.537,29.422,4.148,44.768,19.05c0.149,0.169,0.284,0.347,0.446,0.507c2.858,2.823,5.553,5.969,8.01,9.351    C231.948,337.007,224.769,364.443,220.227,375.884z M228.686,298.511c7.86-2.677,14.689-6.09,20.63-9.957    c0.307,17.283,5.56,39.752,25.456,60.209c-17.574,9.253-28.704,21.666-35.751,33.915    C244.859,367.523,253.231,333.266,228.686,298.511z M325.214,416.819c-0.056,0.042-0.104,0.089-0.159,0.131    c-0.064,0.045-0.13,0.084-0.193,0.13c-3.223,2.37-6.74,4.531-10.455,6.424c-31.145,15.875-57.405,3.916-67.223-1.933    c1.141-12.245,7.187-39.975,37.89-55.622c2.293-1.169,4.627-2.2,6.973-3.118c16.631,10.507,33.379,13.4,46.734,13.4    c4.63,0,8.848-0.347,12.516-0.84C348.958,386.838,342.574,403.928,325.214,416.819z M382.835,490.651    c-10.465-4.537-35.656-18.863-41.101-53.226c-0.399-2.519-0.659-5.035-0.807-7.53c20.414-16.923,27.718-38.341,30.306-52.497    c10.11,5.754,24.334,17.051,31.244,37.294c0.056,0.219,0.096,0.439,0.168,0.656c1.264,3.809,2.237,7.834,2.892,11.968    C410.926,461.327,392.078,482.517,382.835,490.651z M427.206,405.58c-2.501-0.396-4.958-0.923-7.358-1.546    c-9.792-24.625-27.888-38.177-40.544-45.007c8.635-7.875,23.875-17.979,45.428-18.203c0.066-0.001,0.129-0.01,0.194-0.012    c0.068,0.001,0.133,0.014,0.201,0.014c3.969-0.015,8.077,0.3,12.179,0.949c34.034,5.388,48.357,29.884,53.228,41.178    C482.978,391.575,461.699,411.036,427.206,405.58z" fill="#7d3a56" data-original="#000000" style=""/>
	</g>
</g>
<g xmlns="http://www.w3.org/2000/svg">
	<g>
		<path d="M385.728,65.842c-3.32-4.413-9.588-5.298-14.003-1.977L371.15,64.3c-4.407,3.328-5.282,9.598-1.954,14.005    c1.966,2.604,4.958,3.975,7.986,3.975c2.099,0,4.215-0.658,6.019-2.021l0.55-0.415C388.163,76.523,389.049,70.255,385.728,65.842z    " fill="#7d3a56" data-original="#000000" style=""/>
	</g>
</g>
<g xmlns="http://www.w3.org/2000/svg">
	<g>
		<path d="M510.25,9.084c-0.276-2.981-1.875-5.682-4.356-7.358c-2.479-1.678-5.582-2.155-8.451-1.301    c-33.633,10.006-65.858,24.468-95.782,42.984c-4.696,2.906-6.148,9.068-3.242,13.765c2.906,4.696,9.068,6.148,13.765,3.242    c24.883-15.397,51.442-27.843,79.103-37.079c0.465,7.718,0.7,15.462,0.7,23.138c0,55.665-11.778,109.29-35.008,159.383    c-2.323,5.01-0.145,10.955,4.865,13.278c1.362,0.631,2.792,0.93,4.2,0.93c3.774,0,7.386-2.147,9.078-5.795    c24.461-52.749,36.863-109.204,36.863-167.797C511.985,34.059,511.401,21.479,510.25,9.084z" fill="#7d3a56" data-original="#000000" style=""/>
	</g>
</g>
<g xmlns="http://www.w3.org/2000/svg">
	<g>
		<path d="M71.078,56.936c-1.859-1.86-4.439-2.93-7.068-2.93c-2.63,0-5.21,1.07-7.069,2.93s-2.93,4.44-2.93,7.069    s1.069,5.21,2.93,7.069c1.861,1.86,4.44,2.93,7.069,2.93c2.63,0,5.21-1.07,7.068-2.93c1.86-1.86,2.931-4.44,2.931-7.069    S72.938,58.796,71.078,56.936z" fill="#7d3a56" data-original="#000000" style=""/>
	</g>
</g>
<g xmlns="http://www.w3.org/2000/svg">
</g>
<g xmlns="http://www.w3.org/2000/svg">
</g>
<g xmlns="http://www.w3.org/2000/svg">
</g>
<g xmlns="http://www.w3.org/2000/svg">
</g>
<g xmlns="http://www.w3.org/2000/svg">
</g>
<g xmlns="http://www.w3.org/2000/svg">
</g>
<g xmlns="http://www.w3.org/2000/svg">
</g>
<g xmlns="http://www.w3.org/2000/svg">
</g>
<g xmlns="http://www.w3.org/2000/svg">
</g>
<g xmlns="http://www.w3.org/2000/svg">
</g>
<g xmlns="http://www.w3.org/2000/svg">
</g>
<g xmlns="http://www.w3.org/2000/svg">
</g>
<g xmlns="http://www.w3.org/2000/svg">
</g>
<g xmlns="http://www.w3.org/2000/svg">
</g>
<g xmlns="http://www.w3.org/2000/svg">
</g>
</g></svg>
