<?xml version="1.0"?>
<svg xmlns="http://www.w3.org/2000/svg" xmlns:xlink="http://www.w3.org/1999/xlink" xmlns:svgjs="http://svgjs.com/svgjs" version="1.1" width="512" height="512" x="0" y="0" viewBox="0 0 74 74" style="enable-background:new 0 0 512 512" xml:space="preserve"><g><path xmlns="http://www.w3.org/2000/svg" d="m66 32.02a1 1 0 0 1 -1-.907c-.075-.812-.164-1.484-.278-2.116a1 1 0 1 1 1.968-.354c.124.688.22 1.414.3 2.284a1 1 0 0 1 -.9 1.089c-.028.003-.06.004-.09.004z" fill="#94cef2" data-original="#000000" style=""/><path xmlns="http://www.w3.org/2000/svg" d="m62.569 49.5a.986.986 0 0 1 -.465-.116 1 1 0 0 1 -.417-1.351 29.436 29.436 0 0 0 2.03-4.816 1 1 0 1 1 1.906.606 31.4 31.4 0 0 1 -2.169 5.144 1 1 0 0 1 -.885.533z" fill="#94cef2" data-original="#000000" style=""/><path xmlns="http://www.w3.org/2000/svg" d="m65.851 39.34a.978.978 0 0 1 -.142-.01 1 1 0 0 1 -.85-1.13c.111-.779.178-1.435.213-2.065a1 1 0 1 1 2 .11c-.037.688-.11 1.4-.228 2.235a1 1 0 0 1 -.993.86z" fill="#94cef2" data-original="#000000" style=""/><path xmlns="http://www.w3.org/2000/svg" d="m35.11 66.08a32.024 32.024 0 0 1 -32.04-32.04 31.663 31.663 0 0 1 2.623-12.709 1 1 0 0 1 .061-.117 32.027 32.027 0 0 1 37.904-18.064c.025 0 .048.01.071.017a32.181 32.181 0 0 1 17.8 12.746 31.644 31.644 0 0 1 3.779 7.4 1 1 0 1 1 -1.884.67 29.754 29.754 0 0 0 -3.54-6.937 30.191 30.191 0 0 0 -16.637-11.937c-.02 0-.042-.009-.061-.015a30.028 30.028 0 0 0 -35.647 17.031.983.983 0 0 1 -.062.121 29.669 29.669 0 0 0 -2.407 11.794 30.04 30.04 0 0 0 44.052 26.566 1 1 0 1 1 .858 1.809 32.035 32.035 0 0 1 -14.87 3.665z" fill="#94cef2" data-original="#000000" style=""/><path xmlns="http://www.w3.org/2000/svg" d="m41.968 50.937c-.06 0-.117 0-.173 0-3.366-.193-4.649-2.36-5.59-4.376a6.715 6.715 0 0 1 -.291-4.732l.406-1.429a2.306 2.306 0 0 0 -.261-1.851 24.085 24.085 0 0 0 -3.022-3.906 2.333 2.333 0 0 0 -2.137-.653c-2.334.495-4.16.111-5.427-1.144-2.62-2.595-1.575-7.941-1.53-8.167.727-3.294 2.328-5.588 4.763-6.835a8.687 8.687 0 0 1 7.98.3 17.46 17.46 0 0 0 2.751 1.156c2.034.215 3.538-.126 4.45-1.015a4.03 4.03 0 0 0 1.048-2.885c-.117-1.492-1.132-2.469-3.022-2.913a3.737 3.737 0 0 1 -2.792-4.417 8.05 8.05 0 0 1 3.779-4.77 1 1 0 1 1 1.025 1.721 6.108 6.108 0 0 0 -2.848 3.486 1.725 1.725 0 0 0 1.3 2.029c2.751.646 4.369 2.314 4.554 4.7a6.015 6.015 0 0 1 -1.645 4.488c-1.377 1.342-3.452 1.867-6.165 1.56a.982.982 0 0 1 -.176-.036 19.274 19.274 0 0 1 -3.2-1.34 6.692 6.692 0 0 0 -6.127-.278c-1.875.961-3.126 2.8-3.714 5.468-.246 1.233-.558 4.813.982 6.333.76.751 1.974.953 3.6.608a4.333 4.333 0 0 1 4 1.227 26.054 26.054 0 0 1 3.272 4.234 4.316 4.316 0 0 1 .486 3.454l-.406 1.423a4.681 4.681 0 0 0 .181 3.339c.84 1.8 1.612 3.093 3.88 3.223.28.007 3.17-.038 3.669-4.225l.029-.392c.046-.675.438-2.951 3.546-3.775a.706.706 0 0 0 .433-.336.714.714 0 0 0 .069-.548q-.011-.036-.018-.072v-.012a5 5 0 0 1 .9-4.529l3.322-4.04c.212-.352.547-1.048.227-1.447a.683.683 0 0 0 -.661-.214 3.845 3.845 0 0 1 -4.777-3.036 3.618 3.618 0 0 0 -1.375-1.7 1.791 1.791 0 0 1 -.111-2.745 5.147 5.147 0 0 1 2.293-1.09 5.621 5.621 0 0 1 1.187-.123c1.182 0 6.443-.259 9.232-4.712a1 1 0 0 1 1.7 1.062c-3.4 5.431-9.787 5.637-10.993 5.65a3.306 3.306 0 0 0 -.681.074 3.734 3.734 0 0 0 -1.19.467 5.221 5.221 0 0 1 1.879 2.62 1.887 1.887 0 0 0 2.436 1.569 2.67 2.67 0 0 1 2.618.913 3.127 3.127 0 0 1 .013 3.622 2.673 2.673 0 0 1 -.255.364l-3.311 4.027a2.993 2.993 0 0 0 -.52 2.742c.009.034.018.069.024.1a2.717 2.717 0 0 1 -1.923 3.318c-1.774.47-2.036 1.543-2.065 1.982l-.033.441c-.576 4.814-3.814 6.043-5.595 6.043z" fill="#94cef2" data-original="#000000" style=""/><path xmlns="http://www.w3.org/2000/svg" d="m26.687 64.912a1 1 0 0 1 -1-1q0-3.438.01-6.876a2.353 2.353 0 0 0 -.075-.781 2.33 2.33 0 0 0 -.837-.721 7.888 7.888 0 0 1 -.74-.529c-1.905-1.58-1.929-4.148-1.552-6.471a10.177 10.177 0 0 1 -6.693-3.557c-.441-.524-.834-1.1-1.215-1.652-.881-1.283-1.713-2.5-2.945-2.844a6.2 6.2 0 0 0 -3.6.583 12.187 12.187 0 0 1 -3.136.811 1 1 0 1 1 -.158-1.994 10.524 10.524 0 0 0 2.621-.7 7.729 7.729 0 0 1 4.816-.623c1.927.546 3.055 2.187 4.049 3.636.37.539.72 1.048 1.1 1.5a8.145 8.145 0 0 0 6.337 2.9.945.945 0 0 1 .788.365 1.006 1.006 0 0 1 .206.843c-.433 2.029-.748 4.506.655 5.67a5.947 5.947 0 0 0 .559.394 3.808 3.808 0 0 1 1.583 1.617 3.938 3.938 0 0 1 .232 1.563q-.015 3.44-.01 6.871a1 1 0 0 1 -.995.995z" fill="#94cef2" data-original="#000000" style=""/><path xmlns="http://www.w3.org/2000/svg" d="m6.618 22.73a1 1 0 1 1 -.011-2h.2a35.4 35.4 0 0 0 7.687-.884 1.724 1.724 0 0 0 .68-.261 1.853 1.853 0 0 0 .127-.879c0-.137 0-.273.01-.407a7.324 7.324 0 0 1 2.86-5.017l.153-.13c.627-.527 1.338-1.125 1.321-1.667a2.163 2.163 0 0 0 -.136-.558l-.349-1.088c-.244-.761-.488-1.523-.723-2.285a1 1 0 0 1 1.913-.589c.232.755.473 1.51.715 2.264l.345 1.071a3.822 3.822 0 0 1 .238 1.122c.045 1.518-1.156 2.527-2.033 3.265l-.15.126a5.585 5.585 0 0 0 -2.153 3.6c0 .1-.005.217-.007.331a3.2 3.2 0 0 1 -.6 2.144 3.117 3.117 0 0 1 -1.751.914 37.442 37.442 0 0 1 -8.137.936z" fill="#94cef2" data-original="#000000" style=""/><path xmlns="http://www.w3.org/2000/svg" d="m58.656 72a1 1 0 0 1 -.611-.208c-.477-.369-11.661-9.092-11.661-16.346a7.826 7.826 0 0 1 7.631-7.992 7.354 7.354 0 0 1 4.641 1.65 7.359 7.359 0 0 1 4.643-1.65 7.826 7.826 0 0 1 7.631 7.992c0 7.254-11.186 15.978-11.662 16.346a1 1 0 0 1 -.612.208zm-4.641-22.546a5.826 5.826 0 0 0 -5.631 5.992c0 4.89 6.912 11.537 10.267 14.273 2.292-1.891 10.279-8.871 10.279-14.273a5.827 5.827 0 0 0 -5.63-5.992 5.432 5.432 0 0 0 -3.924 1.7 1.029 1.029 0 0 1 -1.437 0 5.433 5.433 0 0 0 -3.924-1.7z" fill="#94cef2" data-original="#000000" style=""/></g></svg>
