<?xml version="1.0"?>
<svg xmlns="http://www.w3.org/2000/svg" xmlns:xlink="http://www.w3.org/1999/xlink" xmlns:svgjs="http://svgjs.com/svgjs" version="1.1" width="512" height="512" x="0" y="0" viewBox="0 0 512 512" style="enable-background:new 0 0 512 512" xml:space="preserve" class=""><g><g xmlns="http://www.w3.org/2000/svg"><path d="m503.705 162.25-32.133-16.066c-7.409-3.705-16.42-.702-20.125 6.708s-.701 16.419 6.708 20.125l32.133 16.066c7.4 3.7 16.415.712 20.125-6.708 3.705-7.41.701-16.42-6.708-20.125z" fill="#7d3a56" data-original="#000000" style="" class=""/><path d="m471.572 44.487 32.133-16.067c7.41-3.705 10.413-12.715 6.708-20.125-3.705-7.409-12.715-10.414-20.125-6.708l-32.133 16.067c-7.41 3.705-10.413 12.715-6.708 20.125 3.72 7.44 12.745 10.398 20.125 6.708z" fill="#7d3a56" data-original="#000000" style="" class=""/><path d="m245.393 250.505c2.813 2.813 6.628 4.394 10.607 4.394s7.794-1.581 10.607-4.394l124.635-124.636c28.85-28.85 28.801-75.502 0-104.303-28.758-28.755-75.547-28.754-104.302-.001l-30.94 30.938-30.94-30.938c-28.755-28.753-75.544-28.753-104.302.001-28.801 28.801-28.85 75.453 0 104.303z" fill="#7d3a56" data-original="#000000" style="" class=""/><path d="m405.841 329.247-72.548 72.55c-8.913 8.904-20.744 13.803-33.32 13.803h-54.438c-8.077 0-15.027-6.207-15.407-14.275-.406-8.614 6.458-15.725 14.983-15.725h48.576c17.747 0 32.133-14.387 32.133-32.133s-14.387-32.133-32.133-32.133h-97.832c-45.505 0-59.923 38.332-62.313 48.2h-23.21v110.333h206.844c18.652 0 36.193-7.266 49.393-20.461l108.903-108.907c5.7-5.699 6.045-15.184-.073-21.286-19.942-19.892-50.896-18.628-69.558.034z" fill="#7d3a56" data-original="#000000" style="" class=""/><path d="m65.334 337.4h-50.334c-8.284 0-15 6.716-15 15v144.6c0 8.284 6.716 15 15 15h50.333c8.284 0 15-6.716 15-15v-144.6c.001-8.284-6.715-15-14.999-15z" fill="#7d3a56" data-original="#000000" style="" class=""/><path d="m40.429 146.184-32.134 16.066c-7.41 3.705-10.413 12.715-6.708 20.125 3.71 7.421 12.725 10.408 20.125 6.708l32.133-16.066c7.41-3.705 10.413-12.715 6.708-20.125s-12.716-10.413-20.124-6.708z" fill="#7d3a56" data-original="#000000" style="" class=""/><path d="m8.295 28.42 32.133 16.067c7.38 3.69 16.405.732 20.125-6.708 3.705-7.41.702-16.42-6.708-20.125l-32.133-16.067c-7.41-3.706-16.42-.701-20.125 6.708-3.705 7.41-.702 16.42 6.708 20.125z" fill="#7d3a56" data-original="#000000" style="" class=""/></g></g></svg>
