<?xml version="1.0"?>
<svg xmlns="http://www.w3.org/2000/svg" xmlns:xlink="http://www.w3.org/1999/xlink" xmlns:svgjs="http://svgjs.com/svgjs" version="1.1" width="512" height="512" x="0" y="0" viewBox="0 0 512 512" style="enable-background:new 0 0 512 512" xml:space="preserve" class=""><g>
<g xmlns="http://www.w3.org/2000/svg">
	<g>
		<path d="M246.486,496.984c-0.062-0.002-0.17,0-0.256,0c-55.43,0-101.548-6.068-137.075-18.038    c-23.946-8.068-43.653-23.631-55.492-43.822c-11.685-19.93-14.893-42.995-9.035-64.945    c11.477-43.003,32.495-90.284,62.467-140.529l3.172-5.257c2.148-3.546,1.015-8.163-2.532-10.311    c-3.546-2.148-8.162-1.016-10.312,2.532l-3.223,5.343c-30.686,51.439-52.245,100.007-64.081,144.352    c-14.219,53.277,17.698,107.82,74.24,126.869C141.436,505.668,189.163,512,246.23,512c0.084,0,0.174,0,0.258,0    c4.146-0.001,7.506-3.363,7.505-7.51C253.993,500.343,250.631,496.984,246.486,496.984z" fill="#79d980" data-original="#000000" style=""/>
	</g>
</g>
<g xmlns="http://www.w3.org/2000/svg">
	<g>
		<path d="M435.199,238.354c0,13.799,11.227,25.025,25.026,25.025c13.799,0,25.026-11.227,25.026-25.025    c0-13.461-10.684-24.468-24.017-25c-10.135-33.958-34.849-58.974-71.755-72.502c-3.064-1.123-6.092-2.122-9.061-3.015    c14.835-2.149,32.471-3.498,49.536-1.899c2.977,10.494,12.638,18.206,24.073,18.206c13.798,0,25.025-11.227,25.025-25.026    s-11.227-25.026-25.025-25.026c-10.918,0-20.22,7.031-23.63,16.8c-33.669-2.967-68.196,4.378-83.221,8.196V91.345l24.129-64.504    c1.413-3.777,1.261-7.875-0.427-11.537c-1.677-3.635-4.663-6.387-8.411-7.75c-9.522-3.464-20.987-3.573-36.079-0.345    c-2.246,0.481-4.501,1.003-6.76,1.527c-6.447,1.496-12.541,2.909-18.529,3.37h-7.245c-1.204-0.103-2.298-0.247-3.335-0.44    c-4.82-0.9-9.683-2.936-14.83-5.091c-8.065-3.377-16.397-6.863-25.87-6.554c-9.485-0.311-17.807,3.177-25.872,6.554    c-5.148,2.155-10.009,4.191-14.829,5.091c-1.037,0.193-2.131,0.338-3.335,0.44h-7.244c-5.988-0.461-12.084-1.875-18.531-3.37    c-2.259-0.524-4.513-1.046-6.759-1.527c-14.342-3.067-26.524-2.735-36.206,0.987c-7.625,2.93-11.484,11.553-8.603,19.221    l24.018,63.934v45.189c-4.689,5.941-16.033,20.669-30.389,41.758c-2.332,3.428-1.445,8.097,1.981,10.431    c3.43,2.334,8.097,1.447,10.432-1.981c13.928-20.461,25.168-35.064,29.732-40.86h171.2    c14.079,17.929,91.777,120.069,119.592,224.293c5.858,21.951,2.649,45.016-9.035,64.945    c-11.837,20.191-31.546,35.753-55.492,43.822c-26.971,9.086-60.256,14.807-98.931,17.002c-4.14,0.234-7.306,3.781-7.07,7.921    c0.227,3.995,3.538,7.082,7.489,7.082c0.144,0,0.287-0.004,0.432-0.012c40.018-2.271,74.63-8.248,102.875-17.763    c56.542-19.05,88.459-73.591,74.24-126.869c-16.397-61.442-49.42-121.431-74.235-160.936    c-15.924-25.349-30.36-45.451-39.669-57.857c8.293,1.355,18.299,3.622,28.702,7.435c32.584,11.943,53.56,32.908,62.429,62.339    C439.806,221.743,435.199,229.518,435.199,238.354z M454.028,119.107c5.52,0,10.009,4.491,10.009,10.01    c0,5.52-4.49,10.01-10.009,10.01c-5.52,0-10.01-4.491-10.01-10.01C444.017,123.598,448.509,119.107,454.028,119.107z     M332.161,130.87H167.474V97.495h164.687V130.87z M334.461,82.479H165.165l-22.654-60.301c6.911-2.628,16.193-2.725,27.596-0.287    c2.162,0.463,4.332,0.966,6.506,1.471c6.815,1.581,13.862,3.215,21.103,3.739c0.181,0.013,0.36,0.02,0.542,0.02h7.83    c0.196,0,0.394-0.008,0.59-0.023c1.852-0.146,3.551-0.366,5.193-0.673c6.391-1.192,12.229-3.637,17.875-6.001    c6.942-2.907,13.482-5.66,19.756-5.391c0.211,0.009,0.42,0.009,0.632,0c6.229-0.265,12.811,2.483,19.755,5.391    c5.647,2.363,11.485,4.808,17.875,6.001c1.644,0.307,3.342,0.527,5.193,0.673c0.195,0.015,0.393,0.023,0.59,0.023h7.831    c0.181,0,0.36-0.006,0.542-0.02c7.24-0.523,14.286-2.158,21.101-3.739c2.175-0.505,4.344-1.008,6.507-1.471    c11.979-2.563,21.043-2.65,27.698-0.266L334.461,82.479z M460.225,228.344c5.52,0,10.01,4.491,10.01,10.01    c0,5.52-4.491,10.01-10.01,10.01c-5.52,0-10.01-4.491-10.01-10.01C450.215,232.834,454.705,228.344,460.225,228.344z" fill="#79d980" data-original="#000000" style=""/>
	</g>
</g>
<g xmlns="http://www.w3.org/2000/svg">
</g>
<g xmlns="http://www.w3.org/2000/svg">
</g>
<g xmlns="http://www.w3.org/2000/svg">
</g>
<g xmlns="http://www.w3.org/2000/svg">
</g>
<g xmlns="http://www.w3.org/2000/svg">
</g>
<g xmlns="http://www.w3.org/2000/svg">
</g>
<g xmlns="http://www.w3.org/2000/svg">
</g>
<g xmlns="http://www.w3.org/2000/svg">
</g>
<g xmlns="http://www.w3.org/2000/svg">
</g>
<g xmlns="http://www.w3.org/2000/svg">
</g>
<g xmlns="http://www.w3.org/2000/svg">
</g>
<g xmlns="http://www.w3.org/2000/svg">
</g>
<g xmlns="http://www.w3.org/2000/svg">
</g>
<g xmlns="http://www.w3.org/2000/svg">
</g>
<g xmlns="http://www.w3.org/2000/svg">
</g>
</g></svg>
