<?xml version="1.0"?>
<svg xmlns="http://www.w3.org/2000/svg" xmlns:xlink="http://www.w3.org/1999/xlink" xmlns:svgjs="http://svgjs.com/svgjs" version="1.1" width="512" height="512" x="0" y="0" viewBox="0 0 44.601 44.601" style="enable-background:new 0 0 512 512" xml:space="preserve" class=""><g>
<g xmlns="http://www.w3.org/2000/svg">
	<g>
		<path d="M29.459,14.265c0.05,0.426,0.095,0.862,0.137,1.308c0.361,0.032,0.741,0.059,1.091,0.096    c-0.052-0.434-0.098-0.876-0.156-1.29C30.181,14.338,29.822,14.3,29.459,14.265z" fill="#d3cecc" data-original="#000000" style="" class=""/>
		<path d="M30.982,7.086c0.159,0.515,0.314,1.056,0.465,1.62c0.311,0.05,0.61,0.104,0.91,0.158c-0.16-0.564-0.326-1.098-0.494-1.602    C31.574,7.201,31.281,7.144,30.982,7.086z" fill="#d3cecc" data-original="#000000" style="" class=""/>
		<path d="M32.289,12.582c0.322,0.046,0.643,0.092,0.951,0.142c-0.106-0.594-0.224-1.158-0.346-1.706    c-0.308-0.063-0.621-0.125-0.943-0.184C32.07,11.398,32.184,11.977,32.289,12.582z" fill="#d3cecc" data-original="#000000" style="" class=""/>
		<path d="M30.984,19.17c-0.024-0.502-0.066-0.975-0.104-1.456c-0.366-0.041-0.742-0.079-1.123-0.115    c0.031,0.492,0.059,0.995,0.08,1.509C30.228,19.127,30.611,19.148,30.984,19.17z" fill="#d3cecc" data-original="#000000" style="" class=""/>
		<path d="M34.044,22.201c0-0.274-0.016-0.524-0.018-0.794c-0.317-0.028-0.644-0.057-0.977-0.084    c0.004,0.291,0.012,0.577,0.012,0.873c0,0.367-0.008,0.724-0.014,1.08c0.334-0.016,0.659-0.031,0.975-0.049    C34.029,22.883,34.044,22.558,34.044,22.201z" fill="#d3cecc" data-original="#000000" style="" class=""/>
		<path d="M21.683,15.259c0.243-0.002,0.481-0.006,0.729-0.006c0.311,0,0.594,0.012,0.897,0.016    c-0.019-0.438-0.036-0.879-0.058-1.321c-0.245-0.002-0.485-0.007-0.736-0.007c-0.248,0-0.473,0.011-0.716,0.014    C21.759,14.393,21.72,14.828,21.683,15.259z" fill="#d3cecc" data-original="#000000" style="" class=""/>
		<path d="M30.974,25.363c-0.367,0.014-0.744,0.025-1.133,0.037c-0.023,0.598-0.057,1.176-0.094,1.744    c0.376-0.037,0.748-0.076,1.107-0.119C30.902,26.482,30.945,25.936,30.974,25.363z" fill="#d3cecc" data-original="#000000" style="" class=""/>
		<path d="M30.439,30.617c0.076-0.498,0.143-1.021,0.207-1.549c-0.349,0.039-0.699,0.076-1.062,0.111    c-0.052,0.534-0.107,1.059-0.169,1.564C29.762,30.705,30.105,30.662,30.439,30.617z" fill="#d3cecc" data-original="#000000" style="" class=""/>
		<path d="M33.968,25.236c-0.316,0.018-0.645,0.032-0.98,0.049c-0.023,0.498-0.055,0.984-0.088,1.464    c0.338-0.054,0.656-0.111,0.979-0.168C33.91,26.137,33.947,25.699,33.968,25.236z" fill="#d3cecc" data-original="#000000" style="" class=""/>
		<path d="M35.062,11.525c0.102,0.51,0.196,1.036,0.284,1.58c0.455,0.093,0.89,0.189,1.31,0.288    c-0.102-0.523-0.211-1.021-0.326-1.505C35.922,11.764,35.504,11.642,35.062,11.525z" fill="#d3cecc" data-original="#000000" style="" class=""/>
		<path d="M34.156,7.838c0.142,0.473,0.275,0.971,0.406,1.485c0.396,0.093,0.782,0.188,1.153,0.288    c-0.159-0.512-0.324-0.993-0.491-1.451C34.884,8.05,34.525,7.944,34.156,7.838z" fill="#d3cecc" data-original="#000000" style="" class=""/>
		<path d="M29.652,3.509c0.192,0.438,0.387,0.906,0.576,1.404c0.275,0.043,0.533,0.094,0.799,0.142c-0.223-0.523-0.44-1-0.656-1.431    C30.139,3.583,29.896,3.546,29.652,3.509z" fill="#d3cecc" data-original="#000000" style="" class=""/>
		<path d="M37.404,19.757c-0.016-0.325-0.043-0.629-0.063-0.944c-0.449-0.105-0.916-0.208-1.407-0.308    c0.021,0.356,0.041,0.717,0.057,1.084C36.48,19.644,36.955,19.699,37.404,19.757z" fill="#d3cecc" data-original="#000000" style="" class=""/>
		<path d="M36.769,6.556c0.107,0.038,0.227,0.075,0.33,0.114c-0.273-0.45-0.529-0.827-0.766-1.151    C36.48,5.845,36.625,6.196,36.769,6.556z" fill="#d3cecc" data-original="#000000" style="" class=""/>
		<path d="M33.982,19.391c-0.021-0.437-0.06-0.839-0.088-1.259c-0.32-0.053-0.639-0.106-0.974-0.155    c0.028,0.437,0.055,0.88,0.075,1.332C33.332,19.335,33.66,19.363,33.982,19.391z" fill="#d3cecc" data-original="#000000" style="" class=""/>
		<path d="M33.523,30.096c0.064-0.464,0.116-0.959,0.17-1.447c-0.32,0.053-0.648,0.104-0.984,0.152    c-0.057,0.508-0.117,1.004-0.186,1.486C32.865,30.227,33.197,30.162,33.523,30.096z" fill="#d3cecc" data-original="#000000" style="" class=""/>
		<path d="M32.596,14.656c0.054,0.413,0.103,0.835,0.146,1.265c0.334,0.046,0.651,0.096,0.974,0.146    c-0.046-0.424-0.093-0.846-0.146-1.25C33.252,14.762,32.928,14.708,32.596,14.656z" fill="#d3cecc" data-original="#000000" style="" class=""/>
		<path d="M32.841,4.173c0.184,0.43,0.368,0.888,0.55,1.376c0.278,0.068,0.558,0.135,0.822,0.206    c-0.253-0.526-0.498-0.992-0.733-1.406C33.279,4.288,33.055,4.232,32.841,4.173z" fill="#d3cecc" data-original="#000000" style="" class=""/>
		<path d="M21.988,11.946c0.177-0.001,0.349-0.005,0.527-0.005c0.22,0,0.43,0.004,0.646,0.006c-0.03-0.653-0.062-1.299-0.092-1.934    c-0.295-0.004-0.588-0.009-0.891-0.01C22.113,10.647,22.05,11.296,21.988,11.946z" fill="#d3cecc" data-original="#000000" style="" class=""/>
		<path d="M22.453,39.807c0.064,0.607,0.126,1.188,0.185,1.73c0.024,0,0.046-0.002,0.069-0.002c0.033-0.463,0.074-1.043,0.121-1.721    c-0.006,0-0.011,0-0.017,0C22.688,39.814,22.576,39.808,22.453,39.807z" fill="#d3cecc" data-original="#000000" style="" class=""/>
		<path d="M23.045,36.478c-0.149,0.001-0.294,0.005-0.446,0.005c-0.164,0-0.32-0.005-0.482-0.006    c0.044,0.449,0.088,0.891,0.131,1.325c0.192,0.002,0.369,0.013,0.564,0.013c0.052,0,0.098-0.003,0.149-0.003    C22.988,37.383,23.017,36.939,23.045,36.478z" fill="#d3cecc" data-original="#000000" style="" class=""/>
		<path d="M37.464,22.23c0-0.152-0.01-0.291-0.012-0.439c-0.45-0.061-0.92-0.119-1.416-0.176c0.002,0.196,0.008,0.388,0.008,0.588    c0,0.307-0.006,0.604-0.01,0.902c0.502-0.035,0.974-0.07,1.412-0.106C37.451,22.738,37.464,22.496,37.464,22.23z" fill="#d3cecc" data-original="#000000" style="" class=""/>
		<path d="M37.398,25.014c-0.443,0.035-0.914,0.07-1.416,0.104c-0.017,0.361-0.037,0.713-0.059,1.063    c0.496-0.108,0.968-0.221,1.419-0.336C37.361,25.566,37.383,25.3,37.398,25.014z" fill="#d3cecc" data-original="#000000" style="" class=""/>
		<path d="M22.779,4.326c0.002,0,0.003,0,0.005,0c-0.001-0.009-0.001-0.019-0.002-0.028C22.78,4.308,22.779,4.318,22.779,4.326z" fill="#d3cecc" data-original="#000000" style="" class=""/>
		<path d="M23.25,0.165c-0.03,0.254-0.063,0.551-0.103,0.874c0.201,0.001,0.396,0.004,0.592,0.007    C23.553,0.688,23.388,0.395,23.25,0.165z" fill="#d3cecc" data-original="#000000" style="" class=""/>
		<path d="M35.648,15.226c0.047,0.39,0.088,0.789,0.127,1.194c0.471,0.09,0.944,0.18,1.381,0.275    c-0.043-0.389-0.092-0.77-0.144-1.142C36.578,15.442,36.125,15.332,35.648,15.226z" fill="#d3cecc" data-original="#000000" style="" class=""/>
		<path d="M22.384,8.006c0.198,0,0.392,0.004,0.587,0.006c-0.028-0.583-0.057-1.148-0.084-1.684    c-0.111-0.001-0.213-0.007-0.325-0.007C22.503,6.867,22.444,7.431,22.384,8.006z" fill="#d3cecc" data-original="#000000" style="" class=""/>
		<path d="M36.699,31.414c-0.448,0.121-0.912,0.24-1.396,0.354c-0.066,0.398-0.136,0.786-0.208,1.166    c0.483-0.138,0.944-0.278,1.383-0.425C36.552,32.15,36.63,31.797,36.699,31.414z" fill="#d3cecc" data-original="#000000" style="" class=""/>
		<path d="M29.251,43.056c-0.217,0.033-0.454,0.058-0.678,0.087c-0.137,0.253-0.271,0.493-0.402,0.715    c0.22-0.06,0.438-0.121,0.654-0.188C28.931,43.529,29.074,43.324,29.251,43.056z" fill="#d3cecc" data-original="#000000" style="" class=""/>
		<path d="M31.211,39.179c-0.298,0.048-0.599,0.097-0.907,0.14c-0.218,0.582-0.438,1.125-0.658,1.629    c0.286-0.051,0.586-0.098,0.858-0.152C30.734,40.314,30.971,39.777,31.211,39.179z" fill="#d3cecc" data-original="#000000" style="" class=""/>
		<path d="M29.187,12.228c0.342,0.03,0.674,0.063,1.002,0.098c-0.119-0.639-0.25-1.245-0.388-1.832    c-0.303-0.041-0.61-0.081-0.925-0.117C28.988,10.968,29.09,11.588,29.187,12.228z" fill="#d3cecc" data-original="#000000" style="" class=""/>
		<path d="M35.939,34.792c-0.426,0.123-0.869,0.241-1.328,0.356c-0.111,0.457-0.229,0.901-0.348,1.324    c0.446-0.117,0.879-0.238,1.284-0.365C35.68,35.689,35.812,35.256,35.939,34.792z" fill="#d3cecc" data-original="#000000" style="" class=""/>
		<path d="M29.234,36.111c-0.252,0.029-0.502,0.061-0.762,0.086c-0.107,0.473-0.222,0.922-0.336,1.356    c0.229-0.022,0.441-0.052,0.665-0.077C28.947,37.039,29.093,36.59,29.234,36.111z" fill="#d3cecc" data-original="#000000" style="" class=""/>
		<path d="M30.074,32.686c-0.311,0.038-0.625,0.073-0.946,0.107c-0.072,0.458-0.147,0.906-0.228,1.339    c0.299-0.035,0.59-0.072,0.879-0.111C29.881,33.587,29.982,33.148,30.074,32.686z" fill="#d3cecc" data-original="#000000" style="" class=""/>
		<path d="M34.697,38.449c-0.373,0.097-0.754,0.19-1.151,0.281c-0.181,0.504-0.361,0.979-0.543,1.422    c0.387-0.119,0.752-0.24,1.1-0.365C34.294,39.393,34.494,38.938,34.697,38.449z" fill="#d3cecc" data-original="#000000" style="" class=""/>
		<path d="M32.398,35.632c-0.318,0.06-0.645,0.117-0.977,0.172c-0.125,0.47-0.253,0.925-0.387,1.358    c0.32-0.053,0.649-0.104,0.953-0.162C32.128,36.564,32.265,36.113,32.398,35.632z" fill="#d3cecc" data-original="#000000" style="" class=""/>
		<path d="M33.182,32.214c-0.325,0.062-0.657,0.118-0.998,0.174c-0.079,0.438-0.165,0.868-0.254,1.285    c0.339-0.063,0.669-0.13,0.991-0.199C33.01,33.062,33.1,32.652,33.182,32.214z" fill="#d3cecc" data-original="#000000" style="" class=""/>
		<path d="M31.062,22.197c0-0.353-0.019-0.673-0.023-1.016c-0.373-0.023-0.756-0.045-1.146-0.065    c0.006,0.386,0.012,0.771,0.012,1.168c0,0.377-0.004,0.744-0.011,1.111c0.392-0.012,0.771-0.022,1.142-0.037    C31.042,22.969,31.062,22.599,31.062,22.197z" fill="#d3cecc" data-original="#000000" style="" class=""/>
		<path d="M38.566,12.659c0.084,0.415,0.157,0.854,0.231,1.293c0.44,0.129,0.854,0.261,1.251,0.393    c-0.091-0.413-0.188-0.806-0.289-1.191C39.388,12.989,38.99,12.824,38.566,12.659z" fill="#d3cecc" data-original="#000000" style="" class=""/>
		<path d="M40.8,20.28c-0.008-0.17-0.012-0.347-0.021-0.515c-0.43-0.141-0.896-0.282-1.393-0.425    c0.012,0.229,0.016,0.471,0.023,0.704C39.906,20.122,40.369,20.2,40.8,20.28z" fill="#d3cecc" data-original="#000000" style="" class=""/>
		<path d="M39.111,16.159c0.039,0.346,0.082,0.686,0.116,1.044c0.478,0.128,0.937,0.256,1.362,0.386    c-0.039-0.332-0.089-0.644-0.135-0.962C40.042,16.473,39.593,16.316,39.111,16.159z" fill="#d3cecc" data-original="#000000" style="" class=""/>
		<path d="M37.658,9.069c0.123,0.401,0.244,0.81,0.359,1.241c0.336,0.114,0.66,0.229,0.971,0.346    c-0.151-0.417-0.308-0.816-0.465-1.19C38.248,9.334,37.965,9.201,37.658,9.069z" fill="#d3cecc" data-original="#000000" style="" class=""/>
		<path d="M40.773,24.673c-0.402,0.052-0.856,0.104-1.365,0.157c-0.006,0.148-0.015,0.294-0.021,0.441    c0.492-0.154,0.954-0.31,1.375-0.462C40.765,24.764,40.771,24.721,40.773,24.673z" fill="#d3cecc" data-original="#000000" style="" class=""/>
		<path d="M40.558,26.994c-0.41,0.138-0.852,0.272-1.312,0.408c-0.033,0.385-0.078,0.741-0.119,1.111    c0.461-0.173,0.892-0.346,1.291-0.518C40.468,27.669,40.516,27.338,40.558,26.994z" fill="#d3cecc" data-original="#000000" style="" class=""/>
		<path d="M42.225,29.396c-0.024,0.137-0.054,0.266-0.079,0.4c0.627-0.434,1.059-0.798,1.314-1.035    C43.092,28.966,42.677,29.179,42.225,29.396z" fill="#d3cecc" data-original="#000000" style="" class=""/>
		<path d="M39,33.734c-0.255,0.104-0.519,0.207-0.791,0.309c-0.101,0.428-0.207,0.826-0.313,1.224    c0.223-0.094,0.418-0.187,0.621-0.278C38.682,34.593,38.843,34.173,39,33.734z" fill="#d3cecc" data-original="#000000" style="" class=""/>
		<path d="M39.986,30.353c-0.367,0.14-0.75,0.276-1.151,0.413c-0.048,0.305-0.093,0.613-0.146,0.905    c0.387-0.167,0.75-0.334,1.088-0.5C39.845,30.898,39.919,30.638,39.986,30.353z" fill="#d3cecc" data-original="#000000" style="" class=""/>
		<path d="M43.865,28.533c-0.006,0.002-0.013,0.006-0.018,0.009l0.012,0.01C43.861,28.546,43.863,28.539,43.865,28.533z" fill="#d3cecc" data-original="#000000" style="" class=""/>
		<path d="M42.812,20.691c0.375,0.086,0.709,0.169,1.012,0.248c-0.287-0.133-0.635-0.28-1.018-0.437    C42.808,20.565,42.809,20.628,42.812,20.691z" fill="#d3cecc" data-original="#000000" style="" class=""/>
		<path d="M40.847,22.333c-0.426-0.081-0.888-0.164-1.387-0.246c0,0.05,0.004,0.094,0.004,0.144c0,0.2-0.012,0.381-0.014,0.579    c0.529-0.058,0.99-0.112,1.389-0.166C40.84,22.537,40.847,22.441,40.847,22.333z" fill="#d3cecc" data-original="#000000" style="" class=""/>
		<path d="M44.363,23.175c-0.291-0.09-0.686-0.203-1.18-0.328l0.236,0.839C43.83,23.48,44.139,23.309,44.363,23.175z" fill="#d3cecc" data-original="#000000" style="" class=""/>
		<path d="M44.55,25.349c-0.5,0.259-1.129,0.556-1.896,0.871c-0.022,0.235-0.035,0.486-0.061,0.716    c0.977-0.543,1.6-0.992,1.91-1.236C44.521,25.582,44.535,25.465,44.55,25.349z" fill="#d3cecc" data-original="#000000" style="" class=""/>
		<path d="M42.126,32.779c0.148-0.276,0.295-0.558,0.433-0.842c-0.321,0.201-0.675,0.408-1.062,0.619    c-0.094,0.327-0.191,0.633-0.291,0.941C41.693,33.16,41.988,32.908,42.126,32.779z" fill="#d3cecc" data-original="#000000" style="" class=""/>
		<path d="M41.244,11.029c0.074,0.23,0.149,0.449,0.221,0.689c0.326,0.159,0.629,0.315,0.91,0.469    c-0.08-0.158-0.158-0.317-0.242-0.473C41.988,11.587,41.695,11.345,41.244,11.029z" fill="#d3cecc" data-original="#000000" style="" class=""/>
		<path d="M42.098,14.348c0.056,0.277,0.117,0.544,0.168,0.832c0.62,0.264,1.147,0.518,1.593,0.749    c-0.047-0.16-0.094-0.32-0.145-0.479C43.46,15.242,42.931,14.841,42.098,14.348z" fill="#d3cecc" data-original="#000000" style="" class=""/>
		<path d="M44.468,18.593l-0.025,0.032c-0.019-0.015-0.594-0.463-1.84-1.077c0.026,0.237,0.04,0.495,0.063,0.739    c0.745,0.277,1.368,0.538,1.875,0.771C44.519,18.903,44.494,18.747,44.468,18.593z" fill="#d3cecc" data-original="#000000" style="" class=""/>
		<path d="M24.977,8.064c0.458,0.02,0.907,0.045,1.349,0.073c-0.149-0.596-0.303-1.159-0.459-1.69    c-0.328-0.021-0.637-0.054-0.975-0.07C24.919,6.914,24.947,7.48,24.977,8.064z" fill="#d3cecc" data-original="#000000" style="" class=""/>
		<path d="M25.074,10.072c0.031,0.628,0.062,1.268,0.092,1.914c0.673,0.022,1.328,0.051,1.963,0.088    c-0.107-0.662-0.225-1.289-0.348-1.896C26.226,10.136,25.66,10.098,25.074,10.072z" fill="#d3cecc" data-original="#000000" style="" class=""/>
		<path d="M27.833,25.449c-0.729,0.015-1.495,0.025-2.287,0.035c-0.013,0.633-0.029,1.286-0.052,1.961    c0.77-0.03,1.511-0.071,2.229-0.123C27.765,26.715,27.804,26.095,27.833,25.449z" fill="#d3cecc" data-original="#000000" style="" class=""/>
		<path d="M24.789,4.374c0.132,0.006,0.268,0.009,0.396,0.016c-0.154-0.429-0.309-0.829-0.459-1.198    C24.746,3.548,24.766,3.945,24.789,4.374z" fill="#d3cecc" data-original="#000000" style="" class=""/>
		<path d="M27.904,22.283c0-0.434-0.018-0.833-0.023-1.254c-0.76-0.026-1.543-0.049-2.359-0.063c0.014,0.513,0.026,0.997,0.034,1.44    c0.007,0.34,0.011,0.703,0.011,1.076c0.805-0.009,1.58-0.021,2.316-0.035C27.888,23.057,27.904,22.687,27.904,22.283z" fill="#d3cecc" data-original="#000000" style="" class=""/>
		<path d="M35.758,28.265c-0.044,0.461-0.095,0.911-0.147,1.353c0.498-0.129,0.969-0.262,1.422-0.398    c0.054-0.407,0.097-0.838,0.141-1.268C36.721,28.059,36.248,28.162,35.758,28.265z" fill="#d3cecc" data-original="#000000" style="" class=""/>
		<path d="M28.025,39.583c-0.16,0.015-0.326,0.026-0.488,0.04c-0.199,0.617-0.399,1.184-0.6,1.708    c0.108-0.011,0.204-0.027,0.312-0.039C27.502,40.775,27.761,40.218,28.025,39.583z" fill="#d3cecc" data-original="#000000" style="" class=""/>
		<path d="M29.258,8.401c-0.172-0.589-0.349-1.146-0.53-1.672c-0.232-0.03-0.469-0.06-0.707-0.087    c0.146,0.53,0.286,1.087,0.424,1.673C28.717,8.342,28.992,8.369,29.258,8.401z" fill="#d3cecc" data-original="#000000" style="" class=""/>
		<path d="M27.054,32.975c-0.586,0.041-1.189,0.073-1.807,0.1c-0.024,0.455-0.049,0.906-0.074,1.352    c0.559-0.023,1.104-0.055,1.633-0.093C26.893,33.896,26.975,33.441,27.054,32.975z" fill="#d3cecc" data-original="#000000" style="" class=""/>
		<path d="M25.357,39.76c-0.17,0.007-0.347,0.012-0.52,0.018c-0.044,0.637-0.083,1.19-0.116,1.653    C24.928,40.93,25.141,40.379,25.357,39.76z" fill="#d3cecc" data-original="#000000" style="" class=""/>
		<path d="M27.279,3.216c-0.121-0.011-0.254-0.016-0.377-0.025c0.162,0.424,0.323,0.878,0.484,1.361    c0.18,0.018,0.354,0.037,0.527,0.056C27.699,4.102,27.488,3.642,27.279,3.216z" fill="#d3cecc" data-original="#000000" style="" class=""/>
		<path d="M27.543,29.341c-0.688,0.046-1.392,0.084-2.123,0.11c-0.022,0.537-0.046,1.076-0.071,1.615    c0.692-0.029,1.357-0.074,2.01-0.125C27.426,30.425,27.486,29.89,27.543,29.341z" fill="#d3cecc" data-original="#000000" style="" class=""/>
		<path d="M25.054,36.431c-0.027,0.461-0.056,0.907-0.084,1.336c0.35-0.013,0.688-0.03,1.025-0.05    c0.121-0.434,0.244-0.875,0.361-1.352C25.932,36.392,25.498,36.412,25.054,36.431z" fill="#d3cecc" data-original="#000000" style="" class=""/>
		<path d="M26.086,43.4c-0.009,0-0.017,0-0.024,0.002c-0.029,0.062-0.057,0.116-0.086,0.176C26.01,43.525,26.05,43.456,26.086,43.4z    " fill="#d3cecc" data-original="#000000" style="" class=""/>
		<path d="M37.168,37.699c-0.011,0.004-0.021,0.009-0.029,0.012c-0.014,0.038-0.026,0.074-0.041,0.111    C37.121,37.783,37.146,37.74,37.168,37.699z" fill="#d3cecc" data-original="#000000" style="" class=""/>
		<path d="M28.654,0.765C28.5,0.72,28.343,0.674,28.189,0.633c0.129,0.22,0.264,0.455,0.4,0.707    c0.176,0.021,0.345,0.043,0.516,0.064C28.928,1.142,28.773,0.922,28.654,0.765z" fill="#d3cecc" data-original="#000000" style="" class=""/>
		<path d="M27.826,19.026c-0.025-0.548-0.061-1.074-0.096-1.597c-0.754-0.051-1.529-0.092-2.337-0.121    c0.022,0.567,0.044,1.121,0.062,1.656C26.275,18.979,27.064,18.999,27.826,19.026z" fill="#d3cecc" data-original="#000000" style="" class=""/>
		<path d="M26.125,1.129c-0.127-0.2-0.242-0.378-0.352-0.538c0.084,0.168,0.17,0.346,0.258,0.533    C26.062,1.126,26.093,1.127,26.125,1.129z" fill="#d3cecc" data-original="#000000" style="" class=""/>
		<path d="M25.255,13.989c0.02,0.439,0.039,0.878,0.059,1.313c0.775,0.026,1.514,0.068,2.242,0.114    c-0.045-0.442-0.086-0.896-0.139-1.316C26.72,14.054,26.002,14.015,25.255,13.989z" fill="#d3cecc" data-original="#000000" style="" class=""/>
		<path d="M6.461,12.671c-0.424,0.174-0.819,0.35-1.19,0.524c-0.098,0.369-0.195,0.738-0.283,1.133    c0.395-0.129,0.808-0.256,1.244-0.382C6.306,13.516,6.378,13.078,6.461,12.671z" fill="#d3cecc" data-original="#000000" style="" class=""/>
		<path d="M18.236,41.355c-0.188-0.537-0.378-1.128-0.564-1.765c-0.194-0.019-0.379-0.039-0.569-0.058    c0.252,0.658,0.501,1.24,0.746,1.777C17.981,41.324,18.1,41.342,18.236,41.355z" fill="#d3cecc" data-original="#000000" style="" class=""/>
		<path d="M7.538,22.371c0,0.188,0.011,0.354,0.012,0.537c0.435,0.048,0.905,0.094,1.417,0.138    c-0.003-0.234-0.008-0.463-0.008-0.701c0-0.235,0.006-0.462,0.008-0.694c-0.493,0.057-0.963,0.113-1.415,0.173    C7.55,22.01,7.538,22.183,7.538,22.371z" fill="#d3cecc" data-original="#000000" style="" class=""/>
		<path d="M16.837,36.197c-0.286-0.028-0.563-0.062-0.842-0.097c0.127,0.466,0.258,0.903,0.391,1.331    c0.243,0.029,0.488,0.059,0.739,0.084C17.026,37.097,16.93,36.654,16.837,36.197z" fill="#d3cecc" data-original="#000000" style="" class=""/>
		<path d="M16.267,32.837c-0.354-0.035-0.706-0.071-1.048-0.111c0.084,0.445,0.176,0.867,0.268,1.287    c0.319,0.044,0.645,0.085,0.975,0.123C16.393,33.716,16.328,33.283,16.267,32.837z" fill="#d3cecc" data-original="#000000" style="" class=""/>
		<path d="M19.909,34.418c-0.04-0.445-0.08-0.893-0.119-1.342c-0.504-0.02-0.997-0.045-1.48-0.074    c0.066,0.459,0.138,0.902,0.211,1.332C18.974,34.367,19.438,34.396,19.909,34.418z" fill="#d3cecc" data-original="#000000" style="" class=""/>
		<path d="M20.099,36.427c-0.401-0.017-0.795-0.037-1.182-0.062c0.101,0.461,0.203,0.904,0.31,1.324    c0.336,0.021,0.655,0.053,1.003,0.067C20.187,37.32,20.143,36.878,20.099,36.427z" fill="#d3cecc" data-original="#000000" style="" class=""/>
		<path d="M19.501,29.447c-0.547-0.021-1.082-0.049-1.604-0.084c0.046,0.555,0.097,1.097,0.153,1.615    c0.512,0.037,1.037,0.066,1.573,0.092C19.58,30.523,19.539,29.982,19.501,29.447z" fill="#d3cecc" data-original="#000000" style="" class=""/>
		<path d="M18.914,43.402c0.227,0.393,0.43,0.722,0.596,0.972c-0.144-0.282-0.297-0.604-0.457-0.962    C19.007,43.408,18.96,43.404,18.914,43.402z" fill="#d3cecc" data-original="#000000" style="" class=""/>
		<path d="M15.508,41.009c-0.221-0.54-0.442-1.124-0.66-1.751c-0.414-0.062-0.81-0.13-1.203-0.198    c0.257,0.661,0.512,1.238,0.758,1.757C14.755,40.886,15.129,40.947,15.508,41.009z" fill="#d3cecc" data-original="#000000" style="" class=""/>
		<path d="M10.647,36.342c-0.113-0.414-0.224-0.843-0.329-1.289c-0.427-0.109-0.84-0.225-1.239-0.342    c0.128,0.454,0.26,0.882,0.395,1.292C9.848,36.119,10.238,36.232,10.647,36.342z" fill="#d3cecc" data-original="#000000" style="" class=""/>
		<path d="M9.216,28.156c-0.486-0.108-0.955-0.223-1.406-0.34c0.047,0.465,0.1,0.918,0.157,1.358    c0.445,0.138,0.91,0.272,1.397,0.403C9.312,29.115,9.26,28.644,9.216,28.156z" fill="#d3cecc" data-original="#000000" style="" class=""/>
		<path d="M7.663,37.542c0.203,0.36,0.399,0.688,0.589,0.979c-0.115-0.285-0.23-0.587-0.344-0.897    C7.827,37.596,7.742,37.57,7.663,37.542z" fill="#d3cecc" data-original="#000000" style="" class=""/>
		<path d="M9.064,26.041c-0.019-0.324-0.035-0.651-0.049-0.985c-0.508-0.043-0.98-0.088-1.42-0.133    c0.012,0.26,0.034,0.498,0.049,0.752C8.096,25.801,8.571,25.922,9.064,26.041z" fill="#d3cecc" data-original="#000000" style="" class=""/>
		<path d="M9.849,32.831c-0.065-0.356-0.128-0.722-0.188-1.095c-0.467-0.113-0.919-0.23-1.353-0.354    c0.066,0.357,0.139,0.691,0.21,1.031C8.943,32.558,9.387,32.697,9.849,32.831z" fill="#d3cecc" data-original="#000000" style="" class=""/>
		<path d="M20.62,41.496c-0.06-0.547-0.121-1.127-0.186-1.734c-0.21-0.009-0.422-0.016-0.629-0.025    c0.207,0.653,0.414,1.237,0.615,1.758C20.485,41.494,20.556,41.494,20.62,41.496z" fill="#d3cecc" data-original="#000000" style="" class=""/>
		<path d="M13.348,33.664c-0.08-0.401-0.156-0.813-0.229-1.235c-0.461-0.073-0.911-0.151-1.348-0.235    c0.074,0.418,0.158,0.801,0.239,1.192C12.443,33.484,12.887,33.576,13.348,33.664z" fill="#d3cecc" data-original="#000000" style="" class=""/>
		<path d="M11.95,40.232c-0.205-0.504-0.41-1.049-0.612-1.636c-0.341-0.079-0.661-0.163-0.983-0.247    c0.262,0.606,0.521,1.155,0.767,1.619C11.389,40.058,11.656,40.146,11.95,40.232z" fill="#d3cecc" data-original="#000000" style="" class=""/>
		<path d="M14.171,37.111c-0.119-0.422-0.235-0.865-0.349-1.318c-0.447-0.075-0.882-0.155-1.306-0.239    c0.123,0.462,0.249,0.897,0.378,1.317C13.308,36.956,13.732,37.035,14.171,37.111z" fill="#d3cecc" data-original="#000000" style="" class=""/>
		<path d="M16.097,43.707c0.264,0.078,0.528,0.154,0.796,0.223c-0.129-0.234-0.263-0.488-0.4-0.759    c-0.285-0.035-0.576-0.069-0.85-0.109C15.837,43.355,15.989,43.57,16.097,43.707z" fill="#d3cecc" data-original="#000000" style="" class=""/>
		<path d="M0.276,18.885c0.523-0.241,1.217-0.531,2.095-0.842c0.019-0.182,0.03-0.374,0.051-0.552    c-1.16,0.541-1.847,0.975-2.104,1.152C0.303,18.725,0.288,18.804,0.276,18.885z" fill="#d3cecc" data-original="#000000" style="" class=""/>
		<path d="M21.395,18.953c0.461-0.004,0.901-0.013,1.377-0.013c0.232,0,0.455,0.002,0.683,0.003    c-0.02-0.541-0.041-1.101-0.063-1.674c-0.329-0.004-0.641-0.017-0.979-0.017c-0.31,0-0.592,0.011-0.894,0.014    C21.472,17.848,21.431,18.412,21.395,18.953z" fill="#d3cecc" data-original="#000000" style="" class=""/>
		<path d="M3.692,11.376c-0.677,0.485-1.131,0.875-1.373,1.103c0.372-0.225,0.788-0.458,1.24-0.692    C3.601,11.642,3.649,11.516,3.692,11.376z" fill="#d3cecc" data-original="#000000" style="" class=""/>
		<path d="M20.903,3.085c-0.019,0.001-0.038,0.001-0.057,0.001c-0.152,0.396-0.307,0.823-0.465,1.283    c0.125-0.005,0.254-0.006,0.38-0.01C20.81,3.916,20.857,3.49,20.903,3.085z" fill="#d3cecc" data-original="#000000" style="" class=""/>
		<path d="M0.244,25.353c0.279,0.239,0.973,0.787,2.144,1.459c-0.029-0.276-0.048-0.571-0.071-0.858    c-0.855-0.375-1.561-0.73-2.129-1.045C0.205,25.056,0.224,25.203,0.244,25.353z" fill="#d3cecc" data-original="#000000" style="" class=""/>
		<path d="M0.084,21.185l-0.032-0.051c-0.001,0.02-0.001,0.04-0.002,0.061C0.062,21.192,0.073,21.189,0.084,21.185z" fill="#d3cecc" data-original="#000000" style="" class=""/>
		<path d="M3.754,33.508c-0.107-0.341-0.212-0.688-0.312-1.052c-0.483-0.257-0.918-0.507-1.313-0.75    c0.164,0.351,0.336,0.696,0.518,1.036C2.822,32.883,3.182,33.154,3.754,33.508z" fill="#d3cecc" data-original="#000000" style="" class=""/>
		<path d="M2.776,15.134c0.04-0.22,0.086-0.427,0.129-0.641c-1.022,0.656-1.624,1.189-1.87,1.428    C1.523,15.676,2.101,15.41,2.776,15.134z" fill="#d3cecc" data-original="#000000" style="" class=""/>
		<path d="M2.821,29.754c-0.03-0.161-0.066-0.311-0.095-0.475c-0.73-0.362-1.357-0.715-1.879-1.037    c0.002,0.009,0.004,0.017,0.007,0.024C1.129,28.525,1.77,29.078,2.821,29.754z" fill="#d3cecc" data-original="#000000" style="" class=""/>
		<path d="M2.166,23.656l0.021-0.045c-0.009-0.289-0.021-0.572-0.023-0.869c-0.465,0.104-0.878,0.201-1.211,0.285    C1.284,23.216,1.699,23.43,2.166,23.656z" fill="#d3cecc" data-original="#000000" style="" class=""/>
		<path d="M4.206,20.293c0.434-0.075,0.897-0.15,1.389-0.226c0.013-0.314,0.028-0.624,0.047-0.93    c-0.497,0.133-0.962,0.265-1.388,0.396C4.238,19.785,4.219,20.034,4.206,20.293z" fill="#d3cecc" data-original="#000000" style="" class=""/>
		<path d="M5.599,25.046c-0.005-0.117-0.004-0.247-0.008-0.366c-0.533-0.076-0.989-0.152-1.382-0.227    c0.002,0.029,0.001,0.061,0.003,0.089C4.642,24.71,5.105,24.878,5.599,25.046z" fill="#d3cecc" data-original="#000000" style="" class=""/>
		<path d="M6.426,9.73c-0.119,0.287-0.235,0.603-0.352,0.915c0.306-0.121,0.628-0.239,0.958-0.356    c0.094-0.343,0.19-0.671,0.289-0.994C7.007,9.44,6.71,9.584,6.426,9.73z" fill="#d3cecc" data-original="#000000" style="" class=""/>
		<path d="M4.464,17.379c0.419-0.12,0.865-0.238,1.338-0.356c0.03-0.301,0.074-0.574,0.109-0.865    c-0.479,0.151-0.925,0.302-1.34,0.453C4.533,16.863,4.497,17.117,4.464,17.379z" fill="#d3cecc" data-original="#000000" style="" class=""/>
		<path d="M4.154,22.408c0.362,0.076,0.82,0.158,1.392,0.246c-0.001-0.098-0.007-0.186-0.007-0.283c0-0.09,0.006-0.172,0.007-0.262    c-0.497,0.078-0.962,0.156-1.394,0.234C4.152,22.367,4.154,22.387,4.154,22.408z" fill="#d3cecc" data-original="#000000" style="" class=""/>
		<path d="M5.868,28.449c-0.044-0.4-0.086-0.803-0.122-1.221c-0.477-0.15-0.925-0.303-1.353-0.455    c0.045,0.393,0.104,0.756,0.159,1.129C4.96,28.085,5.399,28.268,5.868,28.449z" fill="#d3cecc" data-original="#000000" style="" class=""/>
		<path d="M7.132,35.184c-0.111-0.398-0.223-0.798-0.327-1.229c-0.312-0.116-0.611-0.234-0.902-0.354    c0.154,0.445,0.314,0.864,0.477,1.265C6.619,34.972,6.867,35.076,7.132,35.184z" fill="#d3cecc" data-original="#000000" style="" class=""/>
		<path d="M6.315,31.578c-0.051-0.281-0.099-0.572-0.146-0.865c-0.415-0.146-0.816-0.291-1.194-0.439    c0.059,0.27,0.122,0.524,0.187,0.782C5.522,31.23,5.905,31.404,6.315,31.578z" fill="#d3cecc" data-original="#000000" style="" class=""/>
		<path d="M2.196,20.676c0.005-0.143,0.005-0.292,0.012-0.433c-1.076,0.421-1.712,0.755-1.964,0.898    C0.746,21.007,1.384,20.849,2.196,20.676z" fill="#d3cecc" data-original="#000000" style="" class=""/>
		<path d="M19.272,20.985c-0.544,0.013-1.077,0.028-1.597,0.046c-0.017,0.643-0.037,1.278-0.037,1.952    c0,0.162,0.003,0.316,0.004,0.479c0.51,0.01,1.032,0.02,1.576,0.025c-0.003-0.359-0.003-0.705,0.003-1.021    C19.229,22.017,19.247,21.518,19.272,20.985z" fill="#d3cecc" data-original="#000000" style="" class=""/>
		<path d="M20.367,8.03c0.06-0.567,0.118-1.124,0.176-1.665c-0.262,0.01-0.539,0.008-0.795,0.022    c-0.151,0.529-0.3,1.091-0.445,1.682C19.652,8.054,20.008,8.041,20.367,8.03z" fill="#d3cecc" data-original="#000000" style="" class=""/>
		<path d="M19.507,17.299c-0.575,0.018-1.112,0.05-1.659,0.078c-0.04,0.529-0.065,1.095-0.095,1.649    c0.535-0.018,1.073-0.035,1.634-0.047C19.422,18.44,19.463,17.878,19.507,17.299z" fill="#d3cecc" data-original="#000000" style="" class=""/>
		<path d="M18.493,12.044c0.482-0.024,0.976-0.045,1.479-0.061c0.062-0.65,0.126-1.3,0.19-1.943    c-0.447,0.015-0.886,0.035-1.314,0.06C18.723,10.719,18.606,11.369,18.493,12.044z" fill="#d3cecc" data-original="#000000" style="" class=""/>
		<path d="M15.132,12.298c0.422-0.043,0.854-0.082,1.295-0.118c0.104-0.669,0.219-1.303,0.336-1.921    c-0.425,0.042-0.841,0.089-1.246,0.14C15.38,11.005,15.251,11.635,15.132,12.298z" fill="#d3cecc" data-original="#000000" style="" class=""/>
		<path d="M19.784,13.991c-0.549,0.02-1.063,0.054-1.587,0.084c-0.054,0.419-0.106,0.841-0.154,1.279    c0.529-0.025,1.073-0.045,1.627-0.061C19.708,14.864,19.745,14.429,19.784,13.991z" fill="#d3cecc" data-original="#000000" style="" class=""/>
		<path d="M16.035,8.322c0.378-0.041,0.764-0.078,1.157-0.111c0.133-0.575,0.271-1.119,0.41-1.643    c-0.37,0.04-0.72,0.092-1.075,0.141C16.36,7.218,16.195,7.753,16.035,8.322z" fill="#d3cecc" data-original="#000000" style="" class=""/>
		<path d="M15.902,1.556c0.205-0.031,0.407-0.063,0.618-0.092c0.18-0.345,0.353-0.658,0.518-0.942    c-0.16,0.039-0.319,0.081-0.479,0.124C16.44,0.791,16.205,1.099,15.902,1.556z" fill="#d3cecc" data-original="#000000" style="" class=""/>
		<path d="M17.312,4.584c0.286-0.03,0.593-0.049,0.888-0.075c0.146-0.454,0.291-0.874,0.436-1.276    c-0.269,0.024-0.513,0.06-0.772,0.088C17.682,3.708,17.499,4.129,17.312,4.584z" fill="#d3cecc" data-original="#000000" style="" class=""/>
		<path d="M19.369,27.437c-0.04-0.677-0.073-1.331-0.099-1.95c-0.55-0.006-1.077-0.016-1.594-0.024    c0.02,0.642,0.044,1.271,0.077,1.875C18.285,27.373,18.813,27.412,19.369,27.437z" fill="#d3cecc" data-original="#000000" style="" class=""/>
		<path d="M22.599,34.482c0.192,0,0.376-0.005,0.564-0.007c0.025-0.444,0.052-0.896,0.076-1.353    c-0.275,0.003-0.547,0.009-0.829,0.009c-0.206,0-0.403-0.005-0.605-0.007c0.039,0.451,0.079,0.9,0.121,1.349    C22.152,34.477,22.37,34.482,22.599,34.482z" fill="#d3cecc" data-original="#000000" style="" class=""/>
		<path d="M18.976,1.205c0.154-0.012,0.314-0.021,0.472-0.032c0.189-0.437,0.37-0.837,0.535-1.173    c-0.077,0.009-0.154,0.021-0.231,0.03C19.571,0.272,19.3,0.668,18.976,1.205z" fill="#d3cecc" data-original="#000000" style="" class=""/>
		<path d="M22.411,31.132c0.316,0,0.621-0.006,0.93-0.011c0.025-0.543,0.051-1.084,0.072-1.623c-0.324,0.004-0.646,0.009-0.98,0.009    c-0.313,0-0.615-0.006-0.921-0.011c0.039,0.535,0.081,1.078,0.125,1.627C21.896,31.126,22.149,31.132,22.411,31.132z" fill="#d3cecc" data-original="#000000" style="" class=""/>
		<path d="M21.221,22.503c-0.006,0.308-0.006,0.646-0.002,0.997c0.332,0.001,0.663,0.003,1.007,0.003c0.456,0,0.9-0.001,1.338-0.003    c0-0.368-0.002-0.723-0.01-1.055c-0.009-0.461-0.021-0.968-0.036-1.501c-0.249-0.002-0.493-0.004-0.747-0.004    c-0.517,0-0.997,0.01-1.494,0.014C21.25,21.517,21.23,22.039,21.221,22.503z" fill="#d3cecc" data-original="#000000" style="" class=""/>
		<path d="M22.433,27.507c0.366,0,0.701-0.015,1.059-0.019c0.021-0.686,0.039-1.35,0.053-1.988    c-0.432,0.002-0.868,0.003-1.317,0.003c-0.325,0-0.637-0.002-0.952-0.003c0.026,0.629,0.063,1.295,0.104,1.984    C21.733,27.49,22.069,27.507,22.433,27.507z" fill="#d3cecc" data-original="#000000" style="" class=""/>
		<path d="M13.867,8.603c0.136-0.529,0.276-1.036,0.421-1.521c-0.368,0.072-0.749,0.14-1.1,0.221    c-0.161,0.474-0.319,0.968-0.473,1.495C13.09,8.729,13.474,8.664,13.867,8.603z" fill="#d3cecc" data-original="#000000" style="" class=""/>
		<path d="M13.254,2.056c0.056-0.103,0.111-0.205,0.166-0.302c-0.116,0.052-0.232,0.104-0.348,0.157l0.14,0.139    c-0.001,0.001-0.014,0.016-0.018,0.019C13.214,2.064,13.235,2.06,13.254,2.056z" fill="#d3cecc" data-original="#000000" style="" class=""/>
		<path d="M23.119,44.598c0.146-0.221,0.363-0.574,0.636-1.088c-0.3,0.007-0.587,0.02-0.896,0.021    c0.045,0.399,0.086,0.759,0.121,1.069C23.027,44.601,23.072,44.6,23.119,44.598z" fill="#d3cecc" data-original="#000000" style="" class=""/>
		<path d="M15.835,17.505c-0.456,0.036-0.926,0.067-1.359,0.108c-0.039,0.515-0.08,1.023-0.105,1.563    c0.439-0.026,0.913-0.046,1.373-0.067C15.771,18.566,15.798,18.026,15.835,17.505z" fill="#d3cecc" data-original="#000000" style="" class=""/>
		<path d="M10.817,5.839c0.263-0.076,0.547-0.145,0.822-0.217c0.162-0.432,0.325-0.837,0.488-1.222    c-0.231,0.065-0.449,0.132-0.667,0.199C11.252,4.97,11.037,5.382,10.817,5.839z" fill="#d3cecc" data-original="#000000" style="" class=""/>
		<path d="M12.801,30.336c-0.065-0.499-0.125-1.014-0.179-1.538c-0.461-0.07-0.908-0.146-1.345-0.226    c0.053,0.506,0.102,1.021,0.164,1.5C11.88,30.165,12.334,30.253,12.801,30.336z" fill="#d3cecc" data-original="#000000" style="" class=""/>
		<path d="M9.346,9.564c0.371-0.103,0.751-0.202,1.146-0.298c0.118-0.456,0.24-0.901,0.366-1.323    c-0.366,0.113-0.734,0.228-1.076,0.348C9.634,8.695,9.488,9.116,9.346,9.564z" fill="#d3cecc" data-original="#000000" style="" class=""/>
		<path d="M12.442,26.729c-0.032-0.474-0.06-0.955-0.081-1.449c-0.467-0.023-0.911-0.049-1.339-0.076    c0.02,0.443,0.056,0.854,0.083,1.281C11.542,26.568,11.979,26.652,12.442,26.729z" fill="#d3cecc" data-original="#000000" style="" class=""/>
		<path d="M8.372,13.394c0.422-0.098,0.854-0.193,1.307-0.285c0.094-0.563,0.195-1.102,0.302-1.626    c-0.439,0.12-0.862,0.244-1.266,0.372C8.595,12.351,8.479,12.857,8.372,13.394z" fill="#d3cecc" data-original="#000000" style="" class=""/>
		<path d="M9.258,16.295c0.036-0.356,0.074-0.71,0.115-1.054c-0.473,0.104-0.932,0.21-1.365,0.32    c-0.046,0.321-0.085,0.657-0.125,0.991C8.321,16.464,8.783,16.378,9.258,16.295z" fill="#d3cecc" data-original="#000000" style="" class=""/>
		<path d="M10.959,22.345c0,0.295,0.015,0.563,0.019,0.853c0.421,0.026,0.863,0.054,1.327,0.078    c-0.005-0.341-0.012-0.678-0.012-1.024c0-0.313,0.007-0.616,0.011-0.923c-0.462,0.037-0.89,0.078-1.324,0.118    C10.976,21.749,10.959,22.033,10.959,22.345z" fill="#d3cecc" data-original="#000000" style="" class=""/>
		<path d="M8.227,6.714c0.147-0.365,0.294-0.722,0.441-1.051c-0.24,0.331-0.503,0.722-0.785,1.186    C7.996,6.804,8.112,6.759,8.227,6.714z" fill="#d3cecc" data-original="#000000" style="" class=""/>
		<path d="M16.022,30.795c-0.054-0.518-0.103-1.049-0.146-1.596c-0.406-0.039-0.805-0.08-1.196-0.127    c0.062,0.539,0.124,1.074,0.198,1.584C15.251,30.706,15.632,30.752,16.022,30.795z" fill="#d3cecc" data-original="#000000" style="" class=""/>
		<path d="M15.743,27.162c-0.029-0.567-0.051-1.152-0.068-1.75c-0.447-0.014-0.883-0.027-1.302-0.043    c0.027,0.57,0.069,1.115,0.111,1.66C14.888,27.08,15.322,27.117,15.743,27.162z" fill="#d3cecc" data-original="#000000" style="" class=""/>
		<path d="M12.746,14.622c-0.446,0.066-0.872,0.138-1.292,0.211c-0.051,0.366-0.09,0.756-0.134,1.137    c0.419-0.059,0.85-0.114,1.293-0.168C12.654,15.402,12.698,15.008,12.746,14.622z" fill="#d3cecc" data-original="#000000" style="" class=""/>
		<path d="M7.602,19.789c0.45-0.058,0.928-0.111,1.417-0.165c0.019-0.427,0.042-0.845,0.068-1.256    c-0.489,0.091-0.956,0.185-1.401,0.28C7.657,19.03,7.62,19.394,7.602,19.789z" fill="#d3cecc" data-original="#000000" style="" class=""/>
		<path d="M14.805,14.353c-0.054,0.396-0.095,0.822-0.141,1.235c0.44-0.04,0.891-0.077,1.353-0.11    c0.043-0.422,0.083-0.849,0.133-1.254C15.695,14.265,15.238,14.304,14.805,14.353z" fill="#d3cecc" data-original="#000000" style="" class=""/>
		<path d="M14.293,22.25c0,0.386,0.019,0.74,0.024,1.115c0.428,0.017,0.865,0.031,1.324,0.045c-0.001-0.145-0.004-0.282-0.004-0.43    c0-0.644,0.021-1.248,0.035-1.865c-0.459,0.023-0.919,0.046-1.356,0.072C14.312,21.546,14.293,21.883,14.293,22.25z" fill="#d3cecc" data-original="#000000" style="" class=""/>
		<path d="M11.032,19.426c0.434-0.039,0.865-0.078,1.325-0.112c0.021-0.5,0.048-0.991,0.08-1.471    c-0.455,0.058-0.881,0.121-1.309,0.186C11.095,18.49,11.056,18.943,11.032,19.426z" fill="#d3cecc" data-original="#000000" style="" class=""/>
		<path d="M14.044,5.076c0.32-0.062,0.636-0.123,0.968-0.179c0.163-0.441,0.327-0.854,0.491-1.249    C15.205,3.7,14.91,3.751,14.627,3.807C14.437,4.194,14.242,4.617,14.044,5.076z" fill="#d3cecc" data-original="#000000" style="" class=""/>
		<path d="M11.793,12.728c0.405-0.064,0.823-0.125,1.249-0.184c0.104-0.632,0.219-1.236,0.338-1.822    c-0.417,0.073-0.823,0.151-1.218,0.233C12.032,11.523,11.907,12.11,11.793,12.728z" fill="#d3cecc" data-original="#000000" style="" class=""/>
	</g>
</g>
<g xmlns="http://www.w3.org/2000/svg">
</g>
<g xmlns="http://www.w3.org/2000/svg">
</g>
<g xmlns="http://www.w3.org/2000/svg">
</g>
<g xmlns="http://www.w3.org/2000/svg">
</g>
<g xmlns="http://www.w3.org/2000/svg">
</g>
<g xmlns="http://www.w3.org/2000/svg">
</g>
<g xmlns="http://www.w3.org/2000/svg">
</g>
<g xmlns="http://www.w3.org/2000/svg">
</g>
<g xmlns="http://www.w3.org/2000/svg">
</g>
<g xmlns="http://www.w3.org/2000/svg">
</g>
<g xmlns="http://www.w3.org/2000/svg">
</g>
<g xmlns="http://www.w3.org/2000/svg">
</g>
<g xmlns="http://www.w3.org/2000/svg">
</g>
<g xmlns="http://www.w3.org/2000/svg">
</g>
<g xmlns="http://www.w3.org/2000/svg">
</g>
</g></svg>
